<svg width="62" height="81" viewBox="0 0 62 81" fill="none" xmlns="http://www.w3.org/2000/svg">
<path d="M1.34783 80.8696H60.6522C61.0096 80.8696 61.3525 80.7276 61.6052 80.4748C61.858 80.222 62 79.8792 62 79.5217V1.34783C62 0.99036 61.858 0.647536 61.6052 0.394769C61.3525 0.142003 61.0096 0 60.6522 0H1.34783C0.99036 0 0.647536 0.142003 0.394769 0.394769C0.142003 0.647536 0 0.99036 0 1.34783V79.5217C0 79.8792 0.142003 80.222 0.394769 80.4748C0.647536 80.7276 0.99036 80.8696 1.34783 80.8696ZM2.69565 2.69565H59.3043V78.1739H2.69565V2.69565Z" fill="white"/>
<path d="M45.8262 43.1309C43.5929 43.1288 41.4141 43.8208 39.5913 45.1113C37.7686 46.4017 36.3919 48.2267 35.6518 50.3338C34.9116 52.4409 34.8447 54.726 35.4601 56.8728C36.0756 59.0197 37.343 60.9222 39.0871 62.3172V74.1309C39.0871 74.3812 39.1568 74.6265 39.2884 74.8395C39.42 75.0524 39.6083 75.2245 39.8321 75.3364C40.056 75.4483 40.3066 75.4957 40.5559 75.4732C40.8052 75.4508 41.0433 75.3593 41.2436 75.2091L45.8262 71.7722L50.4088 75.2091C50.6091 75.3593 50.8472 75.4508 51.0965 75.4732C51.3458 75.4957 51.5964 75.4483 51.8203 75.3364C52.0441 75.2245 52.2324 75.0524 52.364 74.8395C52.4956 74.6265 52.5653 74.3812 52.5653 74.1309V62.3172C54.3094 60.9222 55.5768 59.0197 56.1923 56.8728C56.8077 54.726 56.7408 52.4409 56.0007 50.3338C55.2605 48.2267 53.8838 46.4017 52.0611 45.1113C50.2383 43.8208 48.0595 43.1288 45.8262 43.1309ZM49.8697 71.4352L46.6349 69.0091C46.4016 68.8342 46.1178 68.7396 45.8262 68.7396C45.5346 68.7396 45.2508 68.8342 45.0175 69.0091L41.7827 71.4352V63.9022C44.3745 64.9606 47.2779 64.9606 49.8697 63.9022V71.4352ZM45.8262 62.0004C44.2268 62.0004 42.6632 61.5261 41.3333 60.6375C40.0034 59.7489 38.9669 58.4859 38.3548 57.0082C37.7427 55.5305 37.5826 53.9045 37.8946 52.3358C38.2067 50.7671 38.9769 49.3261 40.1079 48.1951C41.2388 47.0641 42.6798 46.2939 44.2485 45.9819C45.8172 45.6699 47.4432 45.83 48.9209 46.4421C50.3986 47.0542 51.6617 48.0907 52.5503 49.4206C53.4389 50.7505 53.9132 52.314 53.9132 53.9135C53.911 56.0576 53.0583 58.1133 51.5422 59.6295C50.026 61.1456 47.9703 61.9983 45.8262 62.0004Z" fill="white"/>
<path d="M40.435 8.08789H21.5654V10.7835H40.435V8.08789Z" fill="white"/>
<path d="M36.3915 13.4785H25.6089V16.1742H36.3915V13.4785Z" fill="white"/>
<path d="M52.5652 20.2168H8.08691V22.9124H52.5652V20.2168Z" fill="white"/>
<path d="M52.5652 25.6094H8.08691V28.305H52.5652V25.6094Z" fill="white"/>
<path d="M52.5652 31H8.08691V33.6957H52.5652V31Z" fill="white"/>
<path d="M52.5652 36.3906H8.08691V39.0863H52.5652V36.3906Z" fill="white"/>
<path d="M31 41.7832H8.08691V44.4789H31V41.7832Z" fill="white"/>
<path d="M17.5215 57.957H9.43457V60.6527H17.5215V57.957Z" fill="white"/>
<path d="M17.5215 63.3477H9.43457V66.0433H17.5215V63.3477Z" fill="white"/>
<path d="M17.5215 68.7383H9.43457V71.4339H17.5215V68.7383Z" fill="white"/>
</svg>
