<svg width="92" height="92" viewBox="0 0 92 92" fill="none" xmlns="http://www.w3.org/2000/svg">
<path d="M22.303 73.739H22.0242C25.5091 72.0663 27.8788 68.5815 27.8788 64.539C27.8788 58.9633 23.2788 54.3633 17.703 54.3633C12.1273 54.3633 7.52727 58.9633 7.52727 64.539C7.52727 68.5815 9.89697 72.0663 13.3818 73.739H12.9636C5.71515 73.739 0 79.4542 0 86.5633V90.6057C0 91.4421 0.557576 91.9996 1.39394 91.9996H33.7333C34.5697 91.9996 35.1273 91.4421 35.1273 90.6057V86.5633C35.1273 79.4542 29.4121 73.739 22.303 73.739ZM10.3152 64.539C10.3152 60.4966 13.6606 57.1512 17.703 57.1512C21.7455 57.1512 25.0909 60.4966 25.0909 64.539C25.0909 68.5815 21.7455 71.9269 17.703 71.9269C13.6606 71.9269 10.3152 68.5815 10.3152 64.539ZM32.3394 89.2118H2.78788V86.5633C2.78788 80.9875 7.24848 76.5269 12.8242 76.5269H22.303C27.8788 76.5269 32.3394 80.9875 32.3394 86.5633V89.2118Z" fill="white"/>
<path d="M74.8543 70.1144H74.5755C79.4543 68.5811 83.0785 63.8417 83.0785 58.4053C83.0785 51.7144 77.5028 46.1387 70.8119 46.1387C64.121 46.1387 58.5452 51.575 58.5452 58.4053C58.5452 63.8417 62.1695 68.4417 67.0482 70.1144H66.4907C57.0119 70.1144 49.3452 77.7811 49.3452 87.2599V90.6053C49.3452 91.4417 49.9028 91.9993 50.7392 91.9993H90.6058C91.4422 91.9993 91.9998 91.4417 91.9998 90.6053V87.2599C91.9998 77.7811 84.3331 70.1144 74.8543 70.1144ZM61.1937 58.4053C61.1937 53.2478 65.5149 48.9266 70.6725 48.9266C75.9695 48.9266 80.1513 53.1084 80.1513 58.4053C80.1513 63.7023 75.8301 67.8841 70.6725 67.8841C65.5149 67.8841 61.1937 63.5629 61.1937 58.4053ZM89.2119 89.2114H51.9937V87.2599C51.9937 79.3144 58.4058 72.9023 66.3513 72.9023H74.8543C82.7998 72.9023 89.2119 79.3144 89.2119 87.2599V89.2114Z" fill="white"/>
<path d="M18.1211 40.5636L14.4969 50.3212C14.3575 50.8788 14.4969 51.4364 14.9151 51.8545C15.3332 52.2727 16.0302 52.2727 16.4484 51.9939L28.2969 45.4424C29.9696 45.7212 31.6423 46 33.3151 46C41.3999 46 48.3696 42.097 51.9939 36.5212C55.0605 37.0788 58.1272 37.0788 61.3333 36.3818L73.1817 42.9333C73.7393 43.2121 74.2969 43.0727 74.7151 42.7939C75.1333 42.3758 75.2727 41.8182 75.1333 41.2606L71.509 31.503C75.412 28.0182 77.7817 23.4182 77.7817 18.5394C77.7817 8.36364 68.3029 0 56.4545 0C48.6484 0 41.5393 3.62424 37.7757 9.47879C36.3817 9.2 34.8484 9.06061 33.3151 9.06061C21.4666 9.06061 11.9878 17.4242 11.9878 27.6C11.9878 32.4788 14.2181 37.2182 18.1211 40.5636ZM56.4545 2.78788C66.7696 2.78788 74.9939 9.89697 74.9939 18.5394C74.9939 23 72.903 27.0424 68.9999 29.9697C68.5817 30.3879 68.3029 30.9455 68.5817 31.503L71.2302 38.7515L62.1696 33.7333C61.8908 33.5939 61.4726 33.4545 61.1939 33.5939C58.406 34.1515 55.7575 34.2909 53.2484 33.8727C54.0848 31.9212 54.6423 29.6909 54.6423 27.4606C54.6423 19.5152 48.7878 12.6848 40.5636 10.0364C44.0484 5.71515 50.0423 2.78788 56.4545 2.78788ZM33.3151 11.8485C43.6302 11.8485 51.8545 18.9576 51.8545 27.6C51.8545 36.2424 43.4908 43.3515 33.3151 43.3515C31.7817 43.3515 30.109 43.2121 28.4363 42.7939C28.1575 42.6545 27.7393 42.7939 27.4605 42.9333L18.3999 47.9515L21.0484 40.703C21.3272 40.1455 21.0484 39.4485 20.6302 39.1697C16.8666 36.103 14.6363 32.0606 14.6363 27.7394C14.7757 18.9576 23.1393 11.8485 33.3151 11.8485Z" fill="white"/>
<path d="M27.4607 27.8788C27.4607 25.2303 25.2304 23 22.5819 23C19.9334 23 17.7031 25.0909 17.7031 27.8788C17.7031 30.5273 19.9334 32.7576 22.5819 32.7576C25.2304 32.7576 27.4607 30.5273 27.4607 27.8788ZM20.491 27.8788C20.491 26.7636 21.4668 25.7879 22.5819 25.7879C23.6971 25.7879 24.6728 26.7636 24.6728 27.8788C24.6728 28.9939 23.6971 29.9697 22.5819 29.9697C21.4668 29.9697 20.491 28.9939 20.491 27.8788Z" fill="white"/>
<path d="M33.3148 32.7576C35.9633 32.7576 38.1936 30.5273 38.1936 27.8788C38.1936 25.2303 35.9633 23 33.3148 23C30.6663 23 28.436 25.2303 28.436 27.8788C28.436 30.5273 30.6663 32.7576 33.3148 32.7576ZM33.3148 25.7879C34.43 25.7879 35.4057 26.7636 35.4057 27.8788C35.4057 28.9939 34.43 29.9697 33.3148 29.9697C32.1997 29.9697 31.2239 28.9939 31.2239 27.8788C31.2239 26.6242 32.1997 25.7879 33.3148 25.7879Z" fill="white"/>
<path d="M44.0487 32.7576C46.6972 32.7576 48.9275 30.5273 48.9275 27.8788C48.9275 25.2303 46.6972 23 44.0487 23C41.4002 23 39.1699 25.2303 39.1699 27.8788C39.1699 30.5273 41.4002 32.7576 44.0487 32.7576ZM44.0487 25.7879C45.1639 25.7879 46.1396 26.7636 46.1396 27.8788C46.1396 28.9939 45.1639 29.9697 44.0487 29.9697C42.9336 29.9697 41.9578 28.9939 41.9578 27.8788C41.9578 26.6242 42.9336 25.7879 44.0487 25.7879Z" fill="white"/>
<path d="M51.7152 12.5457H68.8607C69.6971 12.5457 70.2546 11.9881 70.2546 11.1518C70.2546 10.3154 69.6971 9.75781 68.8607 9.75781H51.7152C50.8789 9.75781 50.3213 10.3154 50.3213 11.1518C50.3213 11.8487 51.0183 12.5457 51.7152 12.5457Z" fill="white"/>
<path d="M68.8605 16.0312H55.8969C55.0605 16.0312 54.5029 16.5888 54.5029 17.4252C54.5029 18.2616 55.0605 18.8191 55.8969 18.8191H68.8605C69.6969 18.8191 70.2544 18.2616 70.2544 17.4252C70.2544 16.5888 69.6969 16.0312 68.8605 16.0312Z" fill="white"/>
<path d="M68.8607 22.3027H58.685C57.8486 22.3027 57.291 22.8603 57.291 23.6967C57.291 24.533 57.8486 25.0906 58.685 25.0906H68.8607C69.6971 25.0906 70.2547 24.533 70.2547 23.6967C70.2547 22.8603 69.6971 22.3027 68.8607 22.3027Z" fill="white"/>
</svg>
