<svg width="111" height="110" viewBox="0 0 111 110" fill="none" xmlns="http://www.w3.org/2000/svg">
<path d="M87.2155 67.85C88.735 67.85 89.9667 66.6183 89.9667 65.0988C89.9667 63.5794 88.735 62.3477 87.2155 62.3477C85.6961 62.3477 84.4644 63.5794 84.4644 65.0988C84.4644 66.6183 85.6961 67.85 87.2155 67.85Z" fill="white"/>
<path d="M105.312 62.2731H101.142C101.056 62.2731 101.02 62.1753 101.008 62.1508C98.4642 55.6703 93.2554 49.9234 85.8578 45.5704C85.7454 44.9778 85.6881 44.3761 85.6866 43.773C85.695 42.3128 86.039 40.8742 86.692 39.5681C87.345 38.2621 88.2896 37.1237 89.4526 36.2409C89.8268 35.9634 90.118 35.5889 90.2947 35.1578C90.4714 34.7268 90.5269 34.2557 90.4553 33.7954C90.3912 33.3332 90.2059 32.8963 89.9181 32.529C89.6302 32.1617 89.2503 31.8772 88.8168 31.7045C87.4319 31.1532 85.9545 30.871 84.4639 30.8731C81.7604 30.8823 79.1391 31.8036 77.0243 33.4878C74.9095 35.1721 73.425 37.5208 72.8111 40.1537C72.7901 40.1635 72.7671 40.1686 72.7439 40.1686C72.7206 40.1686 72.6977 40.1635 72.6766 40.1537C67.3862 38.7549 61.9352 38.056 56.4631 38.075C31.5191 38.075 11.136 52.2466 10.2312 69.8663C8.71499 69.8052 5.9516 69.4383 4.48431 67.5675C3.17597 65.9658 3.11484 63.398 4.2153 59.9743C4.3156 59.6662 4.28952 59.3309 4.14279 59.0421C3.99607 58.7532 3.74069 58.5344 3.43275 58.4337C3.12467 58.3334 2.78938 58.3594 2.50051 58.5062C2.21164 58.6529 1.99282 58.9083 1.89209 59.2162C0.498169 63.4714 0.669353 66.8094 2.57683 69.1327C4.69217 71.8105 8.31149 72.2873 10.2312 72.3485C10.6714 81.0544 15.7458 89.1 24.6351 95.1159C24.6689 95.1342 24.6949 95.164 24.7084 95.2C24.7219 95.236 24.7219 95.2756 24.7085 95.3116L22.104 100.936C21.8217 101.542 21.6622 102.197 21.6349 102.864C21.6077 103.532 21.7131 104.198 21.9451 104.824C22.1704 105.451 22.5191 106.026 22.9707 106.515C23.4223 107.005 23.9674 107.399 24.574 107.673L28.0832 109.3C29.303 109.868 30.698 109.929 31.963 109.471C33.228 109.013 34.2599 108.072 34.8328 106.854L37.3516 101.364C37.3595 101.346 37.3709 101.33 37.3851 101.317C37.3992 101.304 37.4159 101.293 37.4341 101.287C37.4523 101.28 37.4717 101.277 37.4911 101.277C37.5105 101.278 37.5296 101.283 37.5472 101.291C43.6639 103.211 50.04 104.176 56.4508 104.152C63.2604 104.189 70.0287 103.094 76.4794 100.912L80.1476 107.258C80.4795 107.832 80.9214 108.335 81.4481 108.738C81.9747 109.14 82.5758 109.435 83.2167 109.605C83.6464 109.727 84.0907 109.788 84.5372 109.789C85.4265 109.787 86.2996 109.551 87.0683 109.104L90.4186 107.16C90.9979 106.83 91.5052 106.387 91.9105 105.858C92.3158 105.329 92.611 104.724 92.7785 104.079C92.9533 103.435 92.999 102.764 92.913 102.103C92.8269 101.442 92.6108 100.804 92.2772 100.227L89.0858 94.7124C89.0599 94.6816 89.0458 94.6426 89.0458 94.6024C89.0458 94.5621 89.0599 94.5232 89.0858 94.4923C94.5286 90.8217 98.7352 85.5922 101.154 79.4893C101.166 79.4589 101.186 79.4324 101.212 79.4129C101.238 79.3935 101.269 79.3818 101.301 79.3792H105.25C105.925 79.3792 106.593 79.2464 107.216 78.9883C107.839 78.7302 108.405 78.352 108.882 77.8751C109.359 77.3982 109.737 76.8321 109.995 76.209C110.253 75.5859 110.386 74.9181 110.386 74.2437V67.3964C110.383 66.047 109.849 64.753 108.899 63.7943C107.95 62.8356 106.661 62.2891 105.312 62.2731ZM108.002 74.2559C108.002 74.6092 107.932 74.959 107.797 75.2854C107.662 75.6117 107.464 75.9083 107.214 76.1581C106.964 76.4079 106.667 76.606 106.341 76.7412C106.015 76.8764 105.665 76.946 105.312 76.946H101.362C100.828 76.9506 100.307 77.1181 99.8702 77.4262C99.4333 77.7342 99.1006 78.1681 98.9167 78.67C96.6614 84.2959 92.7624 89.111 87.7286 92.487C87.1977 92.863 86.826 93.4233 86.6858 94.0585C86.5457 94.6938 86.6471 95.3585 86.9705 95.9229L90.1618 101.437C90.3395 101.745 90.4537 102.086 90.4978 102.439C90.5419 102.791 90.515 103.149 90.4186 103.492C90.3312 103.825 90.178 104.137 89.968 104.41C89.758 104.683 89.4955 104.911 89.1959 105.081L85.8456 107.013C85.5459 107.189 85.2142 107.303 84.87 107.349C84.5257 107.396 84.1756 107.373 83.8403 107.282C83.5071 107.195 83.1948 107.042 82.9218 106.832C82.6488 106.622 82.4206 106.359 82.2507 106.059L78.2646 99.151L77.7265 97.9282L76.6505 98.3195C70.1742 100.638 63.3419 101.805 56.4631 101.768C50.3044 101.798 44.1786 100.87 38.3053 99.0165C37.7015 98.8206 37.0469 98.853 36.4654 99.1077C35.8839 99.3624 35.4161 99.8215 35.1507 100.398L32.6074 105.864C32.3039 106.488 31.7659 106.967 31.1108 107.196C30.4557 107.425 29.7366 107.386 29.1103 107.087L25.6011 105.46C25.287 105.318 25.005 105.113 24.7718 104.859C24.5386 104.605 24.3591 104.306 24.2438 103.981C24.1225 103.656 24.0665 103.311 24.0791 102.965C24.0917 102.618 24.1726 102.278 24.3172 101.963L26.9338 96.3387C27.194 95.7751 27.2434 95.1368 27.0728 94.54C26.9023 93.9431 26.5232 93.4272 26.0046 93.0862C17.4454 87.2659 12.64 79.4526 12.64 71.0768C12.64 54.203 32.3017 40.5083 56.4631 40.5083C61.7134 40.4978 66.9424 41.1761 72.0163 42.5258C72.3536 42.6229 72.7072 42.6506 73.0554 42.607C73.4037 42.5635 73.7396 42.4496 74.0425 42.2724C74.3455 42.0952 74.6094 41.8583 74.8181 41.576C75.0267 41.2938 75.1759 40.9721 75.2566 40.6305C75.5698 39.3069 76.1632 38.0658 76.9967 36.991C77.8303 35.9162 78.8846 35.0326 80.0887 34.3999C81.2927 33.7671 82.6185 33.4 83.9765 33.3231C85.3345 33.2463 86.6932 33.4615 87.9609 33.9544C87.9931 33.9667 88.0209 33.9885 88.0405 34.0168C88.0602 34.0452 88.0708 34.0788 88.071 34.1133C88.0806 34.1323 88.0856 34.1532 88.0856 34.1745C88.0856 34.1957 88.0806 34.2167 88.071 34.2356C86.5983 35.3519 85.4038 36.7936 84.5808 38.4481C83.7578 40.1026 83.3286 41.9251 83.3267 43.773C83.2992 44.5255 83.3442 45.2789 83.4612 46.0228C83.5319 46.3786 83.6774 46.7152 83.8883 47.0104C84.0991 47.3056 84.3703 47.5525 84.684 47.7347C91.5313 51.7942 96.3856 57.0275 98.7333 63.0556C98.9212 63.5501 99.2567 63.9748 99.6941 64.2722C100.132 64.5697 100.65 64.7255 101.179 64.7186H105.348C105.701 64.7169 106.05 64.785 106.377 64.9189C106.703 65.0527 107 65.2497 107.25 65.4985C107.5 65.7473 107.698 66.0431 107.833 66.3688C107.969 66.6945 108.038 67.0437 108.038 67.3964L108.002 74.2559Z" fill="white"/>
<path d="M35.6643 34.7992C39.1056 34.7992 42.4696 33.7788 45.331 31.8669C48.1923 29.955 50.4225 27.2375 51.7394 24.0582C53.0564 20.8788 53.4009 17.3803 52.7296 14.0051C52.0582 10.6299 50.401 7.52962 47.9677 5.09624C45.5343 2.66286 42.434 1.0057 39.0588 0.334337C35.6836 -0.337032 32.1851 0.00753897 29.0057 1.32447C25.8264 2.64141 23.1089 4.87156 21.197 7.73292C19.2851 10.5943 18.2646 13.9583 18.2646 17.3996C18.2679 22.0133 20.1021 26.4371 23.3645 29.6994C26.6268 32.9618 31.0506 34.796 35.6643 34.7992ZM35.6643 2.44549C38.6219 2.44549 41.5131 3.32254 43.9723 4.96572C46.4315 6.6089 48.3482 8.94442 49.4801 11.6769C50.6119 14.4094 50.9081 17.4162 50.3311 20.317C49.7541 23.2179 48.3298 25.8824 46.2384 27.9738C44.1471 30.0652 41.4825 31.4894 38.5817 32.0664C35.6809 32.6434 32.6741 32.3473 29.9416 31.2154C27.2091 30.0836 24.8735 28.1669 23.2304 25.7077C21.5872 23.2485 20.7101 20.3573 20.7101 17.3996C20.7134 13.4345 22.2899 9.63278 25.0937 6.82903C27.8974 4.02529 31.6992 2.44873 35.6643 2.44549Z" fill="white"/>
<path d="M31.9838 23.7445C32.8247 24.5077 33.8868 24.9831 35.0162 25.1018V26.2267C35.0162 26.4634 35.1102 26.6905 35.2776 26.8579C35.445 27.0252 35.6721 27.1193 35.9088 27.1193C36.1455 27.1193 36.3726 27.0252 36.54 26.8579C36.7074 26.6905 36.8014 26.4634 36.8014 26.2267V25.0039C37.8823 24.7322 38.8443 24.1137 39.5403 23.2432C40.2291 22.3936 40.597 21.3288 40.5797 20.2353C40.5828 19.6819 40.4763 19.1334 40.2665 18.6213C40.0566 18.1093 39.7475 17.6438 39.3569 17.2518C39.0017 16.8752 38.589 16.5574 38.1342 16.3103C37.5839 15.9923 36.9114 15.6377 36.1044 15.2587C35.4517 15.0121 34.8412 14.6656 34.2948 14.2316C34.1319 14.0736 34.0041 13.8831 33.9198 13.6724C33.8356 13.4617 33.7967 13.2356 33.8057 13.0089C33.8012 12.7598 33.8527 12.513 33.9564 12.2865C34.0601 12.0601 34.2133 11.8598 34.4048 11.7005C34.8117 11.3397 35.3407 11.1473 35.8843 11.1625C36.1836 11.161 36.4802 11.2185 36.7571 11.3318C37.0341 11.4451 37.286 11.612 37.4984 11.8228C37.7578 12.0712 38.0892 12.231 38.445 12.2793C38.8009 12.3276 39.163 12.262 39.4792 12.0918C39.5753 12.0367 39.6589 11.9625 39.7251 11.8737C39.7912 11.7849 39.8384 11.6834 39.8636 11.5756C39.8888 11.4678 39.8916 11.3559 39.8717 11.247C39.8519 11.1381 39.8098 11.0344 39.7482 10.9424C39.4683 10.5332 39.1305 10.1666 38.7456 9.85418C38.1769 9.42816 37.5066 9.15837 36.8014 9.07162V8.00784C36.8014 7.7711 36.7074 7.54407 36.54 7.37667C36.3726 7.20928 36.1455 7.11523 35.9088 7.11523C35.6721 7.11523 35.445 7.20928 35.2776 7.37667C35.1102 7.54407 35.0162 7.7711 35.0162 8.00784V9.08385C34.5003 9.20445 34.0056 9.40232 33.5489 9.67077C33.1391 9.90583 32.7713 10.2075 32.4607 10.5634C32.1695 10.8918 31.9452 11.2739 31.8004 11.6883C31.6277 12.1074 31.5364 12.5556 31.5314 13.0089C31.5114 13.9799 31.866 14.9213 32.5218 15.6377C33.2649 16.3493 34.1476 16.8989 35.114 17.2518C35.7621 17.5452 36.2756 17.8142 36.6791 18.0465C37.0118 18.2373 37.3233 18.4627 37.6084 18.7191C37.8199 18.9317 37.9847 19.1862 38.0921 19.4663C38.1995 19.7463 38.2471 20.0457 38.232 20.3453C38.2444 20.6827 38.1842 21.0189 38.0555 21.3311C37.9269 21.6433 37.7327 21.9242 37.4861 22.155C37.2395 22.3914 36.9479 22.576 36.6287 22.6978C36.3095 22.8196 35.969 22.8762 35.6276 22.8642C34.9566 22.9039 34.2959 22.6851 33.7812 22.2528C33.4477 21.8965 33.1825 21.4821 32.9987 21.03C32.8905 20.7798 32.7018 20.5728 32.4625 20.4421C32.2232 20.3114 31.9471 20.2644 31.6781 20.3086C31.5162 20.3504 31.3647 20.425 31.2327 20.5277C31.1008 20.6304 30.9914 20.7591 30.9112 20.9058C30.831 21.0525 30.7817 21.2141 30.7664 21.3805C30.7511 21.547 30.7701 21.7149 30.8222 21.8737C31.072 22.5728 31.468 23.2106 31.9838 23.7445Z" fill="white"/>
<path d="M64.3742 46.7803C56.285 44.1698 47.4907 44.8734 39.9194 48.7367C39.6738 48.8624 39.4779 49.0676 39.3637 49.3187C39.2494 49.5699 39.2235 49.8523 39.29 50.1201C39.3566 50.3879 39.5118 50.6253 39.7304 50.7937C39.949 50.9621 40.2182 51.0516 40.4941 51.0476C40.6766 51.0387 40.8554 50.9929 41.0198 50.9131C44.482 49.1399 48.2602 48.0672 52.1376 47.7567C56.0151 47.4461 59.9158 47.9038 63.6161 49.1035C63.9203 49.1903 64.2464 49.1558 64.5257 49.0073C64.805 48.8588 65.0159 48.6078 65.1141 48.307C65.2122 48.0062 65.19 47.6791 65.052 47.3944C64.914 47.1097 64.6711 46.8896 64.3742 46.7803Z" fill="white"/>
</svg>
