<svg version="1" xmlns="http://www.w3.org/2000/svg" width="1445.333" height="1445.333" viewBox="0 0 1084.000000 1084.000000"><path d="M0 542v542h1084V0H0v542zm789.2-221.4c43.9 5.7 81.9 24.7 106.5 53.4 21.8 25.5 35.6 56 41.7 92.7l.6 3.3H834v-3.3c0-4.8-3.4-17.3-7-26.1-8.7-20.9-26.4-36.5-48-42.3-9.3-2.5-36.8-2.5-46 .1-40 11.1-61.7 47.3-64.9 108.2-3.5 68.3 14 115.5 49.4 132.9 12.8 6.4 18.6 7.7 35.7 8.2 15.9.6 25.2-.8 35.3-5 13.8-5.8 27.1-17.7 34.4-30.9 4.9-8.7 9.9-23.6 10.8-31.9l.6-5.9H938l-.6 3.2c-3.1 18.3-6.4 30.4-12.1 44.3-23.6 58.3-69.5 92.7-135.8 102.1-14.6 2.1-47.7 2.3-61.5.5-61.9-8.2-107.8-38.1-136.5-89-29.7-52.8-35.7-129.6-14.8-192.4 4.7-14.1 16.3-37.6 24.1-48.7 28-39.8 68.2-64.4 118.2-72.4 14.1-2.3 13.9-2.3 36.7-2.5 14.3-.1 25.1.4 33.5 1.5zM282 406v76h145V330h103v385H427V563H282v152H179V330h103v76z"/></svg>