<svg width="18" height="18" viewBox="0 0 18 18" fill="none" xmlns="http://www.w3.org/2000/svg">
<path fill-rule="evenodd" clip-rule="evenodd" d="M5.99945 6.211L6.80145 5.009C7.04945 4.637 7.05445 4.152 6.81445 3.775L4.41245 0L1.55345 0.953C0.39245 1.34 -0.26755 2.585 0.10345 3.751C0.74945 5.782 2.23345 9.013 5.61045 12.389C8.98645 15.766 12.2175 17.25 14.2495 17.897C15.4155 18.268 16.6605 17.607 17.0475 16.446L17.9995 13.588L14.2255 11.186C13.8475 10.945 13.3635 10.95 12.9905 11.199L11.7895 12C11.4215 12.245 10.9485 12.259 10.5735 12.025C9.96145 11.646 8.98445 10.968 8.00845 9.991C7.03145 9.015 6.35345 8.038 5.97445 7.427C5.74145 7.052 5.75445 6.579 5.99945 6.211Z" fill="black"/>
</svg>
