<svg width="18" height="22" viewBox="0 0 18 22" fill="none" xmlns="http://www.w3.org/2000/svg">
<path fill-rule="evenodd" clip-rule="evenodd" d="M5.99945 8.22397L6.80145 6.82253C7.04945 6.38881 7.05445 5.82333 6.81445 5.38378L4.41245 0.982422L1.55345 2.09355C0.39245 2.54476 -0.26755 3.99633 0.10345 5.3558C0.74945 7.72379 2.23345 11.4909 5.61045 15.427C8.98645 19.3644 12.2175 21.0946 14.2495 21.8489C15.4155 22.2815 16.6605 21.5108 17.0475 20.1572L17.9995 16.825L14.2255 14.0244C13.8475 13.7434 13.3635 13.7493 12.9905 14.0396L11.7895 14.9735C11.4215 15.2591 10.9485 15.2755 10.5735 15.0026C9.96145 14.5608 8.98445 13.7703 8.00845 12.6312C7.03145 11.4932 6.35345 10.3541 5.97445 9.64173C5.74145 9.20451 5.75445 8.65303 5.99945 8.22397Z" fill="white"/>
</svg>
