<svg width="21" height="22" viewBox="0 0 21 22" fill="none" xmlns="http://www.w3.org/2000/svg">
<circle cx="10.5" cy="10.5" r="10.5" fill="black"/>
<path d="M6.666 10.196H7.944V4.454H11.238C11.85 4.454 12.408 4.526 12.912 4.67C13.416 4.802 13.848 5.012 14.208 5.3C14.568 5.576 14.85 5.93 15.054 6.362C15.258 6.794 15.36 7.31 15.36 7.91C15.36 8.51 15.252 9.032 15.036 9.476C14.82 9.92 14.526 10.292 14.154 10.592C13.782 10.88 13.344 11.096 12.84 11.24C12.336 11.384 11.79 11.456 11.202 11.456H9.384V13.274H12.282V14.462H9.384V17H7.944V14.462H6.666V13.274H7.944V11.456H6.666V10.196ZM11.238 10.196C12.066 10.196 12.714 10.01 13.182 9.638C13.662 9.254 13.902 8.678 13.902 7.91C13.902 7.142 13.662 6.584 13.182 6.236C12.714 5.888 12.066 5.714 11.238 5.714H9.384V10.196H11.238Z" fill="white"/>
</svg>
