<svg width="21" height="21" viewBox="0 0 21 21" fill="none" xmlns="http://www.w3.org/2000/svg">
<path d="M10.5 0C4.70842 0 0 4.70842 0 10.5C0 16.2916 4.70842 21 10.5 21C16.2916 21 21 16.2916 21 10.5C21 4.70842 16.2916 0 10.5 0ZM10.5 18.9884C5.81368 18.9884 2.01158 15.1863 2.01158 10.5C2.01158 5.81368 5.81368 2.01158 10.5 2.01158C15.1863 2.01158 18.9884 5.81368 18.9884 10.5C18.9884 15.1863 15.1863 18.9884 10.5 18.9884Z" fill="black"/>
<path d="M10.9192 4.88477H8.92969V12.1574L15.0307 12.1353V10.1237H10.9192V4.88477Z" fill="black"/>
</svg>
