<svg width="102" height="92" viewBox="0 0 102 92" fill="none" xmlns="http://www.w3.org/2000/svg">
<path d="M66.9176 13.12V4.92C66.9176 2.2 64.7262 0 62.0168 0H39.1664C36.457 0 34.2656 2.2 34.2656 4.92V13.12H0V59H3.26719V91.78H97.9359V59H101.203V13.12H66.9176ZM37.5527 4.94C37.5527 4.04 38.2898 3.3 39.1863 3.3H62.0367C62.9332 3.3 63.6703 4.04 63.6703 4.94V13.14H37.5527V4.94ZM94.6688 88.5H6.53437V59H17.9695V72.1H31.0184V59H70.1848V72.1H83.2336V59H94.6688V88.5ZM21.2168 68.84V59H27.7512V68.84H21.2168ZM73.452 68.84V59H79.9863V68.84H73.452ZM97.9359 55.74H3.26719V45.9H97.9359V55.74ZM97.9359 42.62H3.26719V16.4H97.9359V42.62Z" fill="white"/>
</svg>
