<svg width="87" height="93" viewBox="0 0 87 93" fill="none" xmlns="http://www.w3.org/2000/svg">
<path d="M84.8125 0.0859375H1.4375C1.05625 0.0859375 0.690617 0.248458 0.421034 0.537747C0.15145 0.827037 0 1.2194 0 1.62851V91.0979C0 91.507 0.15145 91.8994 0.421034 92.1887C0.690617 92.478 1.05625 92.6405 1.4375 92.6405H7.1875C7.45463 92.6406 7.71652 92.5609 7.94377 92.4102C8.17102 92.2595 8.35465 92.0439 8.47406 91.7874L12.3884 83.385H73.8616L77.7759 91.7874C77.8953 92.0439 78.079 92.2595 78.3062 92.4102C78.5335 92.5609 78.7954 92.6406 79.0625 92.6405H84.8125C85.1937 92.6405 85.5594 92.478 85.829 92.1887C86.0985 91.8994 86.25 91.507 86.25 91.0979V1.62851C86.25 1.2194 86.0985 0.827037 85.829 0.537747C85.5594 0.248458 85.1937 0.0859375 84.8125 0.0859375ZM2.875 3.17109H83.375V80.2999H2.875V3.17109ZM6.29912 89.5553H2.875V83.385H9.17412L6.29912 89.5553ZM83.375 89.5553H79.9509L77.0759 83.385H83.375V89.5553Z" fill="white"/>
<path d="M74.75 75.672V71.0442H77.625C78.0062 71.0442 78.3719 70.8817 78.6415 70.5924C78.911 70.3031 79.0625 69.9108 79.0625 69.5017V52.5333C79.0625 52.1242 78.911 51.7318 78.6415 51.4425C78.3719 51.1532 78.0062 50.9907 77.625 50.9907H74.75V32.4797H77.625C78.0062 32.4797 78.3719 32.3172 78.6415 32.0279C78.911 31.7386 79.0625 31.3463 79.0625 30.9371V13.9688C79.0625 13.5596 78.911 13.1673 78.6415 12.878C78.3719 12.5887 78.0062 12.4262 77.625 12.4262H74.75V7.79844C74.75 7.38932 74.5985 6.99696 74.329 6.70767C74.0594 6.41838 73.6937 6.25586 73.3125 6.25586H7.1875C6.80625 6.25586 6.44062 6.41838 6.17103 6.70767C5.90145 6.99696 5.75 7.38932 5.75 7.79844V75.672C5.75 76.0811 5.90145 76.4735 6.17103 76.7627C6.44062 77.052 6.80625 77.2146 7.1875 77.2146H73.3125C73.6937 77.2146 74.0594 77.052 74.329 76.7627C74.5985 76.4735 74.75 76.0811 74.75 75.672ZM76.1875 67.9591H70.4375V54.0759H76.1875V67.9591ZM76.1875 29.3946H70.4375V15.5113H76.1875V29.3946ZM8.625 74.1294V9.34102H71.875V12.4262H69C68.6188 12.4262 68.2531 12.5887 67.9835 12.878C67.714 13.1673 67.5625 13.5596 67.5625 13.9688V30.9371C67.5625 31.3463 67.714 31.7386 67.9835 32.0279C68.2531 32.3172 68.6188 32.4797 69 32.4797H71.875V50.9907H69C68.6188 50.9907 68.2531 51.1532 67.9835 51.4425C67.714 51.7318 67.5625 52.1242 67.5625 52.5333V69.5017C67.5625 69.9108 67.714 70.3031 67.9835 70.5924C68.2531 70.8817 68.6188 71.0442 69 71.0442H71.875V74.1294H8.625Z" fill="white"/>
<path d="M23 34.0234C20.7255 34.0234 18.5021 34.7472 16.6109 36.1032C14.7198 37.4592 13.2458 39.3866 12.3754 41.6415C11.505 43.8965 11.2772 46.3777 11.721 48.7716C12.1647 51.1654 13.26 53.3643 14.8683 55.0902C16.4766 56.8161 18.5257 57.9914 20.7565 58.4676C22.9872 58.9437 25.2995 58.6993 27.4009 57.7653C29.5022 56.8313 31.2983 55.2495 32.5619 53.2201C33.8255 51.1907 34.5 48.8048 34.5 46.3641C34.4966 43.0922 33.2839 39.9555 31.1279 37.642C28.972 35.3285 26.0489 34.0271 23 34.0234ZM31.4956 47.9066C31.2798 49.2805 30.776 50.5839 30.0222 51.7183L28.083 49.6359L26.0504 51.8171L27.9896 53.8995C26.9324 54.7084 25.7178 55.2491 24.4375 55.4807V52.5344H21.5625V55.4807C20.2822 55.2491 19.0676 54.7084 18.0104 53.8995L19.9496 51.8171L17.917 49.6359L15.9778 51.7183C15.224 50.5839 14.7202 49.2805 14.5044 47.9066H17.25V44.8215H14.5044C14.7202 43.4476 15.224 42.1442 15.9778 41.0098L17.917 43.0922L19.9496 40.911L18.0104 38.8286C19.0676 38.0197 20.2822 37.479 21.5625 37.2474V40.1937H24.4375V37.2474C25.7178 37.479 26.9324 38.0197 27.9896 38.8286L26.0504 40.911L28.083 43.0922L30.0222 41.0098C30.776 42.1442 31.2798 43.4476 31.4956 44.8215H28.75V47.9066H31.4956Z" fill="white"/>
<path d="M23 49.4477C24.5878 49.4477 25.875 48.0664 25.875 46.3625C25.875 44.6586 24.5878 43.2773 23 43.2773C21.4122 43.2773 20.125 44.6586 20.125 46.3625C20.125 48.0664 21.4122 49.4477 23 49.4477Z" fill="white"/>
<path d="M34.5 12.4258H12.9375C12.5563 12.4258 12.1906 12.5883 11.921 12.8776C11.6515 13.1669 11.5 13.5592 11.5 13.9684V23.2238C11.5 23.6329 11.6515 24.0253 11.921 24.3146C12.1906 24.6039 12.5563 24.7664 12.9375 24.7664H15.8125C16.1937 24.7663 16.5593 24.6037 16.8288 24.3144L19.2826 21.6812H28.1549L30.6087 24.3144C30.8782 24.6037 31.2438 24.7663 31.625 24.7664H34.5C34.8812 24.7664 35.2469 24.6039 35.5165 24.3146C35.7861 24.0253 35.9375 23.6329 35.9375 23.2238V13.9684C35.9375 13.5592 35.7861 13.1669 35.5165 12.8776C35.2469 12.5883 34.8812 12.4258 34.5 12.4258ZM33.0625 21.6812H32.2201L29.7663 19.0481C29.4968 18.7588 29.1312 18.5962 28.75 18.5961H18.6875C18.3063 18.5962 17.9407 18.7588 17.6712 19.0481L15.2174 21.6812H14.375V15.5109H33.0625V21.6812Z" fill="white"/>
</svg>
