<svg width="20" height="24" viewBox="0 0 20 24" fill="none" xmlns="http://www.w3.org/2000/svg">
<path d="M19.75 4.6C19.75 4.5691 19.7364 4.54258 19.7317 4.51294C19.7248 4.46848 19.7214 4.42432 19.7041 4.3819C19.6865 4.33882 19.6574 4.3036 19.6304 4.26604C19.6131 4.24174 19.6045 4.21384 19.5831 4.19164C19.5802 4.18876 19.5764 4.18786 19.5735 4.18504C19.5392 4.1509 19.4959 4.12828 19.4541 4.10266C19.4268 4.08604 19.4032 4.06294 19.374 4.05082C19.347 4.03954 19.3159 4.039 19.2871 4.03144C19.2369 4.01836 19.1877 4.003 19.1359 4.00216C19.1321 4.00204 19.1289 4 19.125 4H1.625C1.62094 4 1.61756 4.00216 1.6135 4.00222C1.56481 4.00312 1.51875 4.01812 1.47144 4.02976C1.4395 4.03774 1.40519 4.03876 1.37538 4.05124C1.34831 4.06252 1.32656 4.08418 1.30112 4.0993C1.25725 4.12552 1.21219 4.14946 1.17644 4.18504C1.17362 4.1878 1.16969 4.18876 1.16694 4.19158C1.14544 4.21378 1.13694 4.24168 1.11963 4.26598C1.09256 4.3036 1.0635 4.33876 1.04588 4.3819C1.02856 4.42432 1.02519 4.46848 1.01831 4.51294C1.01362 4.54258 1 4.5691 1 4.6V16.6C1 16.6781 1.01663 16.7559 1.04819 16.8293C1.1115 16.9761 1.23331 17.093 1.38619 17.1537C1.46262 17.184 1.54362 17.2 1.625 17.2H19.125C19.2064 17.2 19.2874 17.184 19.3638 17.1537C19.5166 17.093 19.6384 16.9761 19.7017 16.8293C19.7334 16.7559 19.75 16.6781 19.75 16.6V4.6ZM2.25 5.9758L7.206 10.3938L2.25 15.1515V5.9758ZM10.375 11.5814L3.21644 5.2H17.5335L10.375 11.5814ZM8.12256 11.2108L9.94963 12.8394C9.98544 12.8713 10.0284 12.8887 10.069 12.9111C10.0936 12.9246 10.1147 12.944 10.1407 12.9541C10.2159 12.9835 10.2952 13 10.375 13C10.4548 13 10.5341 12.9835 10.6094 12.9541C10.6354 12.944 10.6564 12.9246 10.6811 12.9111C10.7217 12.8887 10.7646 12.8713 10.8004 12.8394L12.6275 11.2108L17.6162 16H3.13381L8.12256 11.2108ZM13.544 10.3938L18.5 5.9758V15.1515L13.544 10.3938Z" fill="white"/>
</svg>
