<?xml version="1.0" encoding="utf-8"?>
<!-- Generator: Adobe Illustrator 22.0.0, SVG Export Plug-In . SVG Version: 6.00 Build 0)  -->
<svg version="1.1" id="Layer_1" xmlns="http://www.w3.org/2000/svg" xmlns:xlink="http://www.w3.org/1999/xlink" x="0px" y="0px"
	 viewBox="0 0 243.1 86.7" style="enable-background:new 0 0 243.1 86.7;" xml:space="preserve">
<style type="text/css">
	.st0{fill:#FFFFFF;}
</style>
<title>LogoNS</title>
<path class="st0" d="M17.3,20.1H7.5v10.2h-7v-26h7v10.3h9.8V4.4h7v26h-7V20.1z"/>
<path class="st0" d="M27,12.4c0.4-6.6,5.8-8.8,11.8-8.8c6.2,0,11.2,2.2,11.2,9v17.8h-7v-5h-0.2c-1.2,3.5-4.5,5.9-8.2,5.8
	c-4.8,0-8.3-2.2-8.3-7s4-7.1,8.3-8.1s8.4-1.4,8.4-4.4c0-2.1-1.5-3.2-4.2-3.2c-3,0-4.6,1.2-4.8,4L27,12.4L27,12.4z M37.5,19.4
	c-2.2,0.6-4.1,1.7-4.1,4c0,2,1.4,3.2,3.6,3.2c4.8,0,6-5.5,6-9.4C41.9,18.3,39.5,18.9,37.5,19.4L37.5,19.4z"/>
<path class="st0" d="M61.1,4.4H69l9.3,26h-7.5l-6-18.4l-6,18.4h-7.1L61.1,4.4z"/>
<path class="st0" d="M91.4,3.7c8.5,0,13.2,6.1,13.2,13.8s-4.7,13.8-13.2,13.8S78.1,25,78.1,17.4S82.8,3.7,91.4,3.7z M91.4,25.9
	c4.5,0,6.2-3.8,6.2-8.5s-1.8-8.5-6.2-8.5s-6.2,3.8-6.2,8.5S86.9,25.9,91.4,25.9L91.4,25.9z"/>
<path class="st0" d="M130.4,21.9c0,3-2,9.2-12.2,9.2c-7.5,0-11.8-3.2-11.8-8.2c0-9.8,16.5-7.3,16.5-11.5c0-1.6-1.5-3-4.2-3
	c-4.8,0-4.8,3.5-4.8,3.5h-6.8c0-2.5,1.8-8.2,11.5-8.2c7,0,11.2,3.2,11.2,7.8c0,9.8-16.5,6.2-16.5,11.8c0,1.5,1,3.2,4.8,3.2
	c5.5,0,5.5-4.5,5.5-4.5h6.8V21.9z"/>
<path class="st0" d="M145.1,3.7c8.5,0,13.2,6.1,13.2,13.8s-4.7,13.8-13.2,13.8s-13.2-6.1-13.2-13.8S136.6,3.7,145.1,3.7z
	 M145.1,25.9c4.5,0,6.2-3.8,6.2-8.5s-1.8-8.5-6.2-8.5s-6.2,3.8-6.2,8.5S140.7,25.9,145.1,25.9L145.1,25.9z"/>
<path class="st0" d="M160.6,4.4h12.5c6.8,0,10.2,2.2,10.2,7c0,2.5-1.6,4.6-4,5.3v0.2c2.8,0.6,4.8,3.1,4.8,6c0,5-3.2,7.5-10.2,7.5
	h-13.2v-26H160.6z M172.6,14.9c2.5,0,3.8-1,3.8-2.8s-1-2.8-3.2-2.8h-5.5v5.5h4.9V14.9z M167.6,19.4v6h6c2.2,0,3.5-1,3.5-3
	s-1.5-3-4-3H167.6z"/>
<path class="st0" d="M186.1,4.4h7v9.5h3c7.2,0,11.2,3.3,11.2,8.3s-4,8.2-11.2,8.2h-10V4.4z M193.1,18.9v6.5h2c3.8,0,5.2-1,5.2-3.2
	s-1.5-3.2-5.2-3.2L193.1,18.9L193.1,18.9z M216.4,30.4h-7v-26h7V30.4z"/>
<path class="st0" d="M243.1,30.4h-6.8v-4.2h-0.2c-1.5,3-4.6,5-8,5c-7.2,0-9.2-4.8-9.2-10.8v-16h7v14.5c0,4.5,1.2,6.5,4.5,6.5
	c3.8,0,5.8-2.2,5.8-7.5V4.4h7v26H243.1z M221.4-0.1h19.2v2h-19.2V-0.1z"/>
<path class="st0" d="M13.3,58.7c11.5,0,12.2,10.2,12.2,10.2h-7c0,0-0.2-5-5.2-5c-4.4,0-6,3.8-6,8.5s1.6,8.5,6,8.5c5,0,5.2-5,5.2-5h7
	c0,0-0.8,10.2-12.2,10.2c-8.5,0-13-6.1-13-13.8S4.8,58.7,13.3,58.7z"/>
<path class="st0" d="M42.6,58.7c8.6,0,13.2,6.1,13.2,13.8s-4.7,13.8-13.2,13.8S29.4,80,29.4,72.4S34.1,58.7,42.6,58.7z M42.6,80.9
	c4.4,0,6.2-3.8,6.2-8.5s-1.8-8.5-6.2-8.5s-6.2,3.8-6.2,8.5S38.2,80.9,42.6,80.9L42.6,80.9z"/>
<path class="st0" d="M60,59.4h12.5c6.8,0,10.2,2.2,10.2,7c0,2.5-1.6,4.6-4,5.2v0.2c2.8,0.6,4.8,3.1,4.8,6c0,5-3.2,7.5-10.2,7.5H60
	V59.4z M72,69.9c2.5,0,3.8-1,3.8-2.8s-1-2.8-3.2-2.8H67v5.5h5V69.9z M67,74.4v6h6c2.2,0,3.5-1,3.5-3s-1.5-3-4-3H67z"/>
<path class="st0" d="M99.8,58.7c8.5,0,12.5,6.1,12.5,13.8c0,0.6,0,1.5,0,1.5H93.9c0.3,4,2,7,6.2,7c2.4,0,4.5-1.6,5-4h7
	c0,0-1.5,9.2-12.2,9.2c-8.8,0-13-6.1-13-13.8S91.3,58.7,99.8,58.7z M94.1,69.4h11c-0.5-3.2-1.9-5.5-5.3-5.5S94.7,66.2,94.1,69.4
	L94.1,69.4z"/>
<path class="st0" d="M116.6,54.9h37.5v2h-37.5C116.6,56.9,116.6,54.9,116.6,54.9z M131.8,70.9c0-4.5-0.9-6.5-3.6-6.5
	c-3,0-4.6,2.2-4.6,7.5v13.5h-7v-26h6.8v4.3h0.2c0,0,1.8-5,7-5c4.2,0,6.5,2,7.5,5l0,0h0.2c0,0,2.2-5,7.5-5c6.5,0,8.2,4.8,8.2,10.8v16
	h-7V70.9c0-4.5-0.9-6.5-3.6-6.5c-3,0-4.6,2.2-4.6,7.5v13.5h-7L131.8,70.9L131.8,70.9z"/>
<path class="st0" d="M176.4,75.1h-9.8v10.2h-7v-26h7v10.3h9.8V59.4h7v26h-7V75.1z"/>
<path class="st0" d="M213.2,85.4h-6.8v-4.2h-0.2c-1.5,3-4.6,5-8,5c-7.2,0-9.2-4.8-9.2-10.8v-16h7v14.5c0,4.5,1.2,6.5,4.5,6.5
	c3.8,0,5.8-2.2,5.8-7.5V59.4h7v26H213.2z"/>
<path class="st0" d="M218.7,59.4h7v10.5l9.2-10.5h8.2l-9.8,10.1l10.3,15.9h-8.5l-6.6-10.9l-2.9,3v7.9h-7v-26H218.7z"/>
</svg>
